<?xml version="1.0" encoding="UTF-8"?>
<svg xmlns="http://www.w3.org/2000/svg" width="76mm" height="32mm" viewBox="0 0 76 32">
<title>Detail: fill bars with shrinking gaps (C00), circles and line spacing (C01)</title>
<rect x="5.00" y="5.00" width="1.00" height="10.00" fill="#000000" stroke="#000000" stroke-width="0.1"/><rect x="7.00" y="5.00" width="1.00" height="10.00" fill="#000000" stroke="#000000" stroke-width="0.1"/><rect x="9.00" y="5.00" width="1.00" height="10.00" fill="#000000" stroke="#000000" stroke-width="0.1"/><rect x="11.00" y="5.00" width="1.00" height="10.00" fill="#000000" stroke="#000000" stroke-width="0.1"/><rect x="16.00" y="5.00" width="1.00" height="10.00" fill="#000000" stroke="#000000" stroke-width="0.1"/><rect x="17.50" y="5.00" width="1.00" height="10.00" fill="#000000" stroke="#000000" stroke-width="0.1"/><rect x="19.00" y="5.00" width="1.00" height="10.00" fill="#000000" stroke="#000000" stroke-width="0.1"/><rect x="20.50" y="5.00" width="1.00" height="10.00" fill="#000000" stroke="#000000" stroke-width="0.1"/><rect x="25.00" y="5.00" width="1.00" height="10.00" fill="#000000" stroke="#000000" stroke-width="0.1"/><rect x="26.30" y="5.00" width="1.00" height="10.00" fill="#000000" stroke="#000000" stroke-width="0.1"/><rect x="27.60" y="5.00" width="1.00" height="10.00" fill="#000000" stroke="#000000" stroke-width="0.1"/><rect x="28.90" y="5.00" width="1.00" height="10.00" fill="#000000" stroke="#000000" stroke-width="0.1"/><rect x="33.20" y="5.00" width="1.00" height="10.00" fill="#000000" stroke="#000000" stroke-width="0.1"/><rect x="34.40" y="5.00" width="1.00" height="10.00" fill="#000000" stroke="#000000" stroke-width="0.1"/><rect x="35.60" y="5.00" width="1.00" height="10.00" fill="#000000" stroke="#000000" stroke-width="0.1"/><rect x="36.80" y="5.00" width="1.00" height="10.00" fill="#000000" stroke="#000000" stroke-width="0.1"/><rect x="41.00" y="5.00" width="1.00" height="10.00" fill="#000000" stroke="#000000" stroke-width="0.1"/><rect x="42.15" y="5.00" width="1.00" height="10.00" fill="#000000" stroke="#000000" stroke-width="0.1"/><rect x="43.30" y="5.00" width="1.00" height="10.00" fill="#000000" stroke="#000000" stroke-width="0.1"/><rect x="44.45" y="5.00" width="1.00" height="10.00" fill="#000000" stroke="#000000" stroke-width="0.1"/><rect x="48.60" y="5.00" width="1.00" height="10.00" fill="#000000" stroke="#000000" stroke-width="0.1"/><rect x="49.70" y="5.00" width="1.00" height="10.00" fill="#000000" stroke="#000000" stroke-width="0.1"/><rect x="50.80" y="5.00" width="1.00" height="10.00" fill="#000000" stroke="#000000" stroke-width="0.1"/><rect x="51.90" y="5.00" width="1.00" height="10.00" fill="#000000" stroke="#000000" stroke-width="0.1"/><circle cx="65.00" cy="10" r="1.20" fill="none" stroke="#0000FF" stroke-width="0.1"/><circle cx="65.00" cy="10" r="2.40" fill="none" stroke="#0000FF" stroke-width="0.1"/><circle cx="65.00" cy="10" r="3.60" fill="none" stroke="#0000FF" stroke-width="0.1"/><circle cx="65.00" cy="10" r="4.80" fill="none" stroke="#0000FF" stroke-width="0.1"/><circle cx="65.00" cy="10" r="6.00" fill="none" stroke="#0000FF" stroke-width="0.1"/><circle cx="65.00" cy="10" r="7.20" fill="none" stroke="#0000FF" stroke-width="0.1"/><circle cx="65.00" cy="10" r="8.40" fill="none" stroke="#0000FF" stroke-width="0.1"/><path d="M5.00,20.00L5.00,28.00" fill="none" stroke="#0000FF" stroke-width="0.1"/><path d="M5.10,20.00L5.10,28.00" fill="none" stroke="#0000FF" stroke-width="0.1"/><path d="M5.25,20.00L5.25,28.00" fill="none" stroke="#0000FF" stroke-width="0.1"/><path d="M5.45,20.00L5.45,28.00" fill="none" stroke="#0000FF" stroke-width="0.1"/><path d="M5.75,20.00L5.75,28.00" fill="none" stroke="#0000FF" stroke-width="0.1"/><path d="M6.15,20.00L6.15,28.00" fill="none" stroke="#0000FF" stroke-width="0.1"/><path d="M6.65,20.00L6.65,28.00" fill="none" stroke="#0000FF" stroke-width="0.1"/><path d="M7.40,20.00L7.40,28.00" fill="none" stroke="#0000FF" stroke-width="0.1"/><path d="M8.40,20.00L8.40,28.00" fill="none" stroke="#0000FF" stroke-width="0.1"/><path d="M9.90,20.00L9.90,28.00" fill="none" stroke="#0000FF" stroke-width="0.1"/>
</svg>
