<?xml version="1.0" encoding="UTF-8"?>
<svg xmlns="http://www.w3.org/2000/svg" width="176.7mm" height="24.0mm" viewBox="0 0 176.70 24.00"><title>Split-leg honeycomb clips: cell 10 mm, holds 3 mm, red = cut, blue = labels</title><path transform="translate(10.98,11.00)" d="M-7.98,-8.00L17.98,-8.00L17.98,-2.42L17.18,-2.92L7.98,-2.92L7.98,0.00L4.98,0.00L5.08,8.50L3.58,10.00L0.80,10.00L0.80,-2.00L-0.80,-2.00L-0.80,10.00L-3.58,10.00L-5.08,8.50L-4.98,0.00L-7.98,0.00Z" fill="none" stroke="#FF0000" stroke-width="0.1"/><path d="M4.20,4.30L5.70,4.30M5.70,4.30L5.70,5.80M5.70,5.80L5.70,7.30M4.20,7.30L5.70,7.30M4.20,5.80L4.20,7.30M4.20,4.30L4.20,5.80" fill="none" stroke="#0000FF" stroke-width="0.1"/><circle cx="6.23" cy="7.30" r="0.15" fill="none" stroke="#0000FF" stroke-width="0.1"/><path d="M7.05,4.30L8.55,4.30M8.55,4.30L8.55,5.80M8.55,5.80L8.55,7.30M7.05,7.30L8.55,7.30M7.05,5.80L7.05,7.30M7.05,4.30L7.05,5.80" fill="none" stroke="#0000FF" stroke-width="0.1"/><path transform="translate(39.93,11.00)" d="M-7.98,-8.00L17.98,-8.00L17.98,-2.42L17.18,-2.92L7.98,-2.92L7.98,0.00L4.98,0.00L5.17,8.50L3.67,10.00L0.80,10.00L0.80,-2.00L-0.80,-2.00L-0.80,10.00L-3.67,10.00L-5.17,8.50L-4.98,0.00L-7.98,0.00Z" fill="none" stroke="#FF0000" stroke-width="0.1"/><path d="M33.15,4.30L34.65,4.30M34.65,4.30L34.65,5.80M34.65,5.80L34.65,7.30M33.15,7.30L34.65,7.30M33.15,5.80L33.15,7.30M33.15,4.30L33.15,5.80" fill="none" stroke="#0000FF" stroke-width="0.1"/><circle cx="35.18" cy="7.30" r="0.15" fill="none" stroke="#0000FF" stroke-width="0.1"/><path d="M36.00,4.30L37.50,4.30M37.50,4.30L37.50,5.80M36.00,5.80L37.50,5.80M36.00,5.80L36.00,7.30M36.00,7.30L37.50,7.30" fill="none" stroke="#0000FF" stroke-width="0.1"/><path transform="translate(68.88,11.00)" d="M-7.98,-8.00L17.98,-8.00L17.98,-2.42L17.18,-2.92L7.98,-2.92L7.98,0.00L4.98,0.00L5.28,8.50L3.78,10.00L0.80,10.00L0.80,-2.00L-0.80,-2.00L-0.80,10.00L-3.78,10.00L-5.28,8.50L-4.98,0.00L-7.98,0.00Z" fill="none" stroke="#FF0000" stroke-width="0.1"/><path d="M62.10,4.30L63.60,4.30M63.60,4.30L63.60,5.80M63.60,5.80L63.60,7.30M62.10,7.30L63.60,7.30M62.10,5.80L62.10,7.30M62.10,4.30L62.10,5.80" fill="none" stroke="#0000FF" stroke-width="0.1"/><circle cx="64.13" cy="7.30" r="0.15" fill="none" stroke="#0000FF" stroke-width="0.1"/><path d="M64.95,4.30L64.95,5.80M64.95,5.80L66.45,5.80M66.45,4.30L66.45,5.80M66.45,5.80L66.45,7.30" fill="none" stroke="#0000FF" stroke-width="0.1"/><path transform="translate(97.83,11.00)" d="M-7.98,-8.00L17.98,-8.00L17.98,-2.42L17.18,-2.92L7.98,-2.92L7.98,0.00L4.98,0.00L5.38,8.50L3.88,10.00L0.80,10.00L0.80,-2.00L-0.80,-2.00L-0.80,10.00L-3.88,10.00L-5.38,8.50L-4.98,0.00L-7.98,0.00Z" fill="none" stroke="#FF0000" stroke-width="0.1"/><path d="M91.05,4.30L92.55,4.30M92.55,4.30L92.55,5.80M92.55,5.80L92.55,7.30M91.05,7.30L92.55,7.30M91.05,5.80L91.05,7.30M91.05,4.30L91.05,5.80" fill="none" stroke="#0000FF" stroke-width="0.1"/><circle cx="93.08" cy="7.30" r="0.15" fill="none" stroke="#0000FF" stroke-width="0.1"/><path d="M93.90,4.30L95.40,4.30M93.90,4.30L93.90,5.80M93.90,5.80L95.40,5.80M93.90,5.80L93.90,7.30M93.90,7.30L95.40,7.30M95.40,5.80L95.40,7.30" fill="none" stroke="#0000FF" stroke-width="0.1"/><path transform="translate(126.78,11.00)" d="M-7.98,-8.00L17.98,-8.00L17.98,-2.42L17.18,-2.92L7.98,-2.92L7.98,0.00L4.98,0.00L5.48,8.50L3.98,10.00L0.80,10.00L0.80,-2.00L-0.80,-2.00L-0.80,10.00L-3.98,10.00L-5.48,8.50L-4.98,0.00L-7.98,0.00Z" fill="none" stroke="#FF0000" stroke-width="0.1"/><path d="M120.00,4.30L121.50,4.30M121.50,4.30L121.50,5.80M121.50,5.80L121.50,7.30M120.00,7.30L121.50,7.30M120.00,5.80L120.00,7.30M120.00,4.30L120.00,5.80" fill="none" stroke="#0000FF" stroke-width="0.1"/><circle cx="122.03" cy="7.30" r="0.15" fill="none" stroke="#0000FF" stroke-width="0.1"/><path d="M122.85,4.30L124.35,4.30M124.35,4.30L124.35,5.80M124.35,5.80L124.35,7.30M122.85,7.30L124.35,7.30M122.85,5.80L122.85,7.30M122.85,4.30L122.85,5.80M122.85,5.80L124.35,5.80" fill="none" stroke="#0000FF" stroke-width="0.1"/><path transform="translate(155.72,11.00)" d="M-7.98,-8.00L17.98,-8.00L17.98,-2.42L17.18,-2.92L7.98,-2.92L7.98,0.00L4.98,0.00L5.58,8.50L4.08,10.00L0.80,10.00L0.80,-2.00L-0.80,-2.00L-0.80,10.00L-4.08,10.00L-5.58,8.50L-4.98,0.00L-7.98,0.00Z" fill="none" stroke="#FF0000" stroke-width="0.1"/><path d="M150.45,4.30L150.45,5.80M150.45,5.80L150.45,7.30" fill="none" stroke="#0000FF" stroke-width="0.1"/><circle cx="150.97" cy="7.30" r="0.15" fill="none" stroke="#0000FF" stroke-width="0.1"/><path d="M151.80,4.30L153.30,4.30M153.30,4.30L153.30,5.80M153.30,5.80L153.30,7.30M151.80,7.30L153.30,7.30M151.80,5.80L151.80,7.30M151.80,4.30L151.80,5.80" fill="none" stroke="#0000FF" stroke-width="0.1"/></svg>
