<?xml version="1.0" encoding="UTF-8"?>
<svg xmlns="http://www.w3.org/2000/svg" width="143mm" height="30mm" viewBox="0 0 143 30">
<title>Kerf bars (C02 cut) and slot fit comb 2.6-3.4 mm (C02 cut, C01 labels)</title>
<rect x="5.00" y="5.00" width="50.00" height="20.00" fill="none" stroke="#FF0000" stroke-width="0.1"/><path d="M10.00,5.00L10.00,25.00" fill="none" stroke="#FF0000" stroke-width="0.1"/><path d="M15.00,5.00L15.00,25.00" fill="none" stroke="#FF0000" stroke-width="0.1"/><path d="M20.00,5.00L20.00,25.00" fill="none" stroke="#FF0000" stroke-width="0.1"/><path d="M25.00,5.00L25.00,25.00" fill="none" stroke="#FF0000" stroke-width="0.1"/><path d="M30.00,5.00L30.00,25.00" fill="none" stroke="#FF0000" stroke-width="0.1"/><path d="M35.00,5.00L35.00,25.00" fill="none" stroke="#FF0000" stroke-width="0.1"/><path d="M40.00,5.00L40.00,25.00" fill="none" stroke="#FF0000" stroke-width="0.1"/><path d="M45.00,5.00L45.00,25.00" fill="none" stroke="#FF0000" stroke-width="0.1"/><path d="M50.00,5.00L50.00,25.00" fill="none" stroke="#FF0000" stroke-width="0.1"/><path d="M62,30L62,5L64.00,5L64.00,15L66.60,15L66.60,5L72.00,5L72.00,15L74.70,15L74.70,5L80.00,5L80.00,15L82.80,15L82.80,5L88.00,5L88.00,15L90.90,15L90.90,5L96.00,5L96.00,15L99.00,15L99.00,5L104.00,5L104.00,15L107.10,15L107.10,5L112.00,5L112.00,15L115.20,15L115.20,5L120.00,5L120.00,15L123.30,15L123.30,5L128.00,5L128.00,15L131.40,15L131.40,5L138,5L138,30Z" fill="none" stroke="#FF0000" stroke-width="0.1"/><path d="M63.40,18.00L64.90,18.00M64.90,18.00L64.90,19.50M63.40,19.50L64.90,19.50M63.40,19.50L63.40,21.00M63.40,21.00L64.90,21.00" fill="none" stroke="#0000FF" stroke-width="0.1"/><path d="M65.80,18.00L67.30,18.00M65.80,18.00L65.80,19.50M65.80,19.50L67.30,19.50M65.80,19.50L65.80,21.00M65.80,21.00L67.30,21.00M67.30,19.50L67.30,21.00" fill="none" stroke="#0000FF" stroke-width="0.1"/><path d="M71.40,18.00L72.90,18.00M72.90,18.00L72.90,19.50M71.40,19.50L72.90,19.50M71.40,19.50L71.40,21.00M71.40,21.00L72.90,21.00" fill="none" stroke="#0000FF" stroke-width="0.1"/><path d="M73.80,18.00L75.30,18.00M75.30,18.00L75.30,19.50M75.30,19.50L75.30,21.00" fill="none" stroke="#0000FF" stroke-width="0.1"/><path d="M79.40,18.00L80.90,18.00M80.90,18.00L80.90,19.50M79.40,19.50L80.90,19.50M79.40,19.50L79.40,21.00M79.40,21.00L80.90,21.00" fill="none" stroke="#0000FF" stroke-width="0.1"/><path d="M81.80,18.00L83.30,18.00M83.30,18.00L83.30,19.50M83.30,19.50L83.30,21.00M81.80,21.00L83.30,21.00M81.80,19.50L81.80,21.00M81.80,18.00L81.80,19.50M81.80,19.50L83.30,19.50" fill="none" stroke="#0000FF" stroke-width="0.1"/><path d="M87.40,18.00L88.90,18.00M88.90,18.00L88.90,19.50M87.40,19.50L88.90,19.50M87.40,19.50L87.40,21.00M87.40,21.00L88.90,21.00" fill="none" stroke="#0000FF" stroke-width="0.1"/><path d="M89.80,18.00L91.30,18.00M91.30,18.00L91.30,19.50M91.30,19.50L91.30,21.00M89.80,21.00L91.30,21.00M89.80,18.00L89.80,19.50M89.80,19.50L91.30,19.50" fill="none" stroke="#0000FF" stroke-width="0.1"/><path d="M95.40,18.00L96.90,18.00M96.90,18.00L96.90,19.50M95.40,19.50L96.90,19.50M96.90,19.50L96.90,21.00M95.40,21.00L96.90,21.00" fill="none" stroke="#0000FF" stroke-width="0.1"/><path d="M97.80,18.00L99.30,18.00M99.30,18.00L99.30,19.50M99.30,19.50L99.30,21.00M97.80,21.00L99.30,21.00M97.80,19.50L97.80,21.00M97.80,18.00L97.80,19.50" fill="none" stroke="#0000FF" stroke-width="0.1"/><path d="M103.40,18.00L104.90,18.00M104.90,18.00L104.90,19.50M103.40,19.50L104.90,19.50M104.90,19.50L104.90,21.00M103.40,21.00L104.90,21.00" fill="none" stroke="#0000FF" stroke-width="0.1"/><path d="M107.30,18.00L107.30,19.50M107.30,19.50L107.30,21.00" fill="none" stroke="#0000FF" stroke-width="0.1"/><path d="M111.40,18.00L112.90,18.00M112.90,18.00L112.90,19.50M111.40,19.50L112.90,19.50M112.90,19.50L112.90,21.00M111.40,21.00L112.90,21.00" fill="none" stroke="#0000FF" stroke-width="0.1"/><path d="M113.80,18.00L115.30,18.00M115.30,18.00L115.30,19.50M113.80,19.50L115.30,19.50M113.80,19.50L113.80,21.00M113.80,21.00L115.30,21.00" fill="none" stroke="#0000FF" stroke-width="0.1"/><path d="M119.40,18.00L120.90,18.00M120.90,18.00L120.90,19.50M119.40,19.50L120.90,19.50M120.90,19.50L120.90,21.00M119.40,21.00L120.90,21.00" fill="none" stroke="#0000FF" stroke-width="0.1"/><path d="M121.80,18.00L123.30,18.00M123.30,18.00L123.30,19.50M121.80,19.50L123.30,19.50M123.30,19.50L123.30,21.00M121.80,21.00L123.30,21.00" fill="none" stroke="#0000FF" stroke-width="0.1"/><path d="M127.40,18.00L128.90,18.00M128.90,18.00L128.90,19.50M127.40,19.50L128.90,19.50M128.90,19.50L128.90,21.00M127.40,21.00L128.90,21.00" fill="none" stroke="#0000FF" stroke-width="0.1"/><path d="M129.80,18.00L129.80,19.50M129.80,19.50L131.30,19.50M131.30,18.00L131.30,19.50M131.30,19.50L131.30,21.00" fill="none" stroke="#0000FF" stroke-width="0.1"/>
</svg>
