<?xml version="1.0" encoding="UTF-8"?>
<svg xmlns="http://www.w3.org/2000/svg" width="120mm" height="45mm" viewBox="0 0 120 45"><title>Opal white extruded acrylic 3 mm cut test</title><path d="M7.53,4.00L7.53,5.30M7.53,5.30L7.53,6.60" fill="none" stroke="#B4B4B4" stroke-width="0.1"/><path d="M8.31,4.00L9.61,4.00M9.61,4.00L9.61,5.30M8.31,5.30L9.61,5.30M8.31,5.30L8.31,6.60M8.31,6.60L9.61,6.60" fill="none" stroke="#B4B4B4" stroke-width="0.1"/><path d="M10.39,4.00L11.69,4.00M11.69,4.00L11.69,5.30M11.69,5.30L11.69,6.60M10.39,6.60L11.69,6.60M10.39,5.30L10.39,6.60M10.39,4.00L10.39,5.30" fill="none" stroke="#B4B4B4" stroke-width="0.1"/><path d="M12.47,4.00L13.77,4.00M13.77,4.00L13.77,5.30M13.77,5.30L13.77,6.60M12.47,6.60L13.77,6.60M12.47,5.30L12.47,6.60M12.47,4.00L12.47,5.30" fill="none" stroke="#B4B4B4" stroke-width="0.1"/><rect x="5" y="9" width="10" height="10" fill="none" stroke="#000000" stroke-width="0.1"/><path d="M21.53,4.00L21.53,5.30M21.53,5.30L21.53,6.60" fill="none" stroke="#B4B4B4" stroke-width="0.1"/><path d="M22.31,4.00L23.61,4.00M23.61,4.00L23.61,5.30M23.61,5.30L23.61,6.60M22.31,6.60L23.61,6.60M22.31,5.30L22.31,6.60M22.31,4.00L22.31,5.30" fill="none" stroke="#B4B4B4" stroke-width="0.1"/><path d="M24.39,4.00L25.69,4.00M25.69,4.00L25.69,5.30M25.69,5.30L25.69,6.60M24.39,6.60L25.69,6.60M24.39,5.30L24.39,6.60M24.39,4.00L24.39,5.30" fill="none" stroke="#B4B4B4" stroke-width="0.1"/><path d="M26.47,4.00L27.77,4.00M27.77,4.00L27.77,5.30M27.77,5.30L27.77,6.60M26.47,6.60L27.77,6.60M26.47,5.30L26.47,6.60M26.47,4.00L26.47,5.30" fill="none" stroke="#B4B4B4" stroke-width="0.1"/><rect x="19" y="9" width="10" height="10" fill="none" stroke="#0000FF" stroke-width="0.1"/><path d="M35.27,4.00L36.57,4.00M36.57,4.00L36.57,5.30M36.57,5.30L36.57,6.60M35.27,6.60L36.57,6.60M35.27,5.30L35.27,6.60M35.27,4.00L35.27,5.30M35.27,5.30L36.57,5.30" fill="none" stroke="#B4B4B4" stroke-width="0.1"/><path d="M37.35,4.00L38.65,4.00M37.35,4.00L37.35,5.30M37.35,5.30L38.65,5.30M38.65,5.30L38.65,6.60M37.35,6.60L38.65,6.60" fill="none" stroke="#B4B4B4" stroke-width="0.1"/><path d="M39.43,4.00L40.73,4.00M40.73,4.00L40.73,5.30M40.73,5.30L40.73,6.60M39.43,6.60L40.73,6.60M39.43,5.30L39.43,6.60M39.43,4.00L39.43,5.30" fill="none" stroke="#B4B4B4" stroke-width="0.1"/><rect x="33" y="9" width="10" height="10" fill="none" stroke="#FF0000" stroke-width="0.1"/><path d="M49.27,4.00L50.57,4.00M50.57,4.00L50.57,5.30M50.57,5.30L50.57,6.60" fill="none" stroke="#B4B4B4" stroke-width="0.1"/><path d="M51.35,4.00L52.65,4.00M52.65,4.00L52.65,5.30M51.35,5.30L52.65,5.30M51.35,5.30L51.35,6.60M51.35,6.60L52.65,6.60" fill="none" stroke="#B4B4B4" stroke-width="0.1"/><path d="M53.43,4.00L54.73,4.00M54.73,4.00L54.73,5.30M54.73,5.30L54.73,6.60M53.43,6.60L54.73,6.60M53.43,5.30L53.43,6.60M53.43,4.00L53.43,5.30" fill="none" stroke="#B4B4B4" stroke-width="0.1"/><rect x="47" y="9" width="10" height="10" fill="none" stroke="#00E000" stroke-width="0.1"/><path d="M63.27,4.00L64.57,4.00M63.27,4.00L63.27,5.30M63.27,5.30L64.57,5.30M63.27,5.30L63.27,6.60M63.27,6.60L64.57,6.60M64.57,5.30L64.57,6.60" fill="none" stroke="#B4B4B4" stroke-width="0.1"/><path d="M65.35,4.00L66.65,4.00M66.65,4.00L66.65,5.30M65.35,5.30L66.65,5.30M65.35,5.30L65.35,6.60M65.35,6.60L66.65,6.60" fill="none" stroke="#B4B4B4" stroke-width="0.1"/><path d="M67.43,4.00L68.73,4.00M68.73,4.00L68.73,5.30M68.73,5.30L68.73,6.60M67.43,6.60L68.73,6.60M67.43,5.30L67.43,6.60M67.43,4.00L67.43,5.30" fill="none" stroke="#B4B4B4" stroke-width="0.1"/><rect x="61" y="9" width="10" height="10" fill="none" stroke="#D0D000" stroke-width="0.1"/><path d="M77.27,4.00L78.57,4.00M77.27,4.00L77.27,5.30M77.27,5.30L78.57,5.30M78.57,5.30L78.57,6.60M77.27,6.60L78.57,6.60" fill="none" stroke="#B4B4B4" stroke-width="0.1"/><path d="M79.35,4.00L80.65,4.00M80.65,4.00L80.65,5.30M79.35,5.30L80.65,5.30M80.65,5.30L80.65,6.60M79.35,6.60L80.65,6.60" fill="none" stroke="#B4B4B4" stroke-width="0.1"/><path d="M81.43,4.00L82.73,4.00M82.73,4.00L82.73,5.30M82.73,5.30L82.73,6.60M81.43,6.60L82.73,6.60M81.43,5.30L81.43,6.60M81.43,4.00L81.43,5.30" fill="none" stroke="#B4B4B4" stroke-width="0.1"/><rect x="75" y="9" width="10" height="10" fill="none" stroke="#FF8000" stroke-width="0.1"/><path d="M91.27,4.00L91.27,5.30M91.27,5.30L92.57,5.30M92.57,4.00L92.57,5.30M92.57,5.30L92.57,6.60" fill="none" stroke="#B4B4B4" stroke-width="0.1"/><path d="M93.35,4.00L94.65,4.00M93.35,4.00L93.35,5.30M93.35,5.30L94.65,5.30M94.65,5.30L94.65,6.60M93.35,6.60L94.65,6.60" fill="none" stroke="#B4B4B4" stroke-width="0.1"/><path d="M95.43,4.00L96.73,4.00M96.73,4.00L96.73,5.30M96.73,5.30L96.73,6.60M95.43,6.60L96.73,6.60M95.43,5.30L95.43,6.60M95.43,4.00L95.43,5.30" fill="none" stroke="#B4B4B4" stroke-width="0.1"/><rect x="89" y="9" width="10" height="10" fill="none" stroke="#00E0E0" stroke-width="0.1"/><path d="M105.27,4.00L106.57,4.00M106.57,4.00L106.57,5.30M105.27,5.30L106.57,5.30M106.57,5.30L106.57,6.60M105.27,6.60L106.57,6.60" fill="none" stroke="#B4B4B4" stroke-width="0.1"/><path d="M107.35,4.00L108.65,4.00M108.65,4.00L108.65,5.30M108.65,5.30L108.65,6.60M107.35,6.60L108.65,6.60M107.35,5.30L107.35,6.60M107.35,4.00L107.35,5.30M107.35,5.30L108.65,5.30" fill="none" stroke="#B4B4B4" stroke-width="0.1"/><path d="M109.43,4.00L110.73,4.00M110.73,4.00L110.73,5.30M110.73,5.30L110.73,6.60M109.43,6.60L110.73,6.60M109.43,5.30L109.43,6.60M109.43,4.00L109.43,5.30" fill="none" stroke="#B4B4B4" stroke-width="0.1"/><rect x="103" y="9" width="10" height="10" fill="none" stroke="#FF00FF" stroke-width="0.1"/><path d="M8.31,25.00L9.61,25.00M9.61,25.00L9.61,26.30M9.61,26.30L9.61,27.60" fill="none" stroke="#B4B4B4" stroke-width="0.1"/><path d="M10.39,25.00L11.69,25.00M11.69,25.00L11.69,26.30M11.69,26.30L11.69,27.60M10.39,27.60L11.69,27.60M10.39,26.30L10.39,27.60M10.39,25.00L10.39,26.30" fill="none" stroke="#B4B4B4" stroke-width="0.1"/><rect x="5" y="30" width="10" height="10" fill="none" stroke="#0000A0" stroke-width="0.1"/><path d="M22.31,25.00L23.61,25.00M23.61,25.00L23.61,26.30M23.61,26.30L23.61,27.60" fill="none" stroke="#B4B4B4" stroke-width="0.1"/><path d="M24.39,25.00L25.69,25.00M24.39,25.00L24.39,26.30M24.39,26.30L25.69,26.30M25.69,26.30L25.69,27.60M24.39,27.60L25.69,27.60" fill="none" stroke="#B4B4B4" stroke-width="0.1"/><rect x="19" y="30" width="10" height="10" fill="none" stroke="#A00000" stroke-width="0.1"/><path d="M36.31,25.00L37.61,25.00M37.61,25.00L37.61,26.30M37.61,26.30L37.61,27.60M36.31,27.60L37.61,27.60M36.31,26.30L36.31,27.60M36.31,25.00L36.31,26.30M36.31,26.30L37.61,26.30" fill="none" stroke="#B4B4B4" stroke-width="0.1"/><path d="M38.39,25.00L39.69,25.00M39.69,25.00L39.69,26.30M39.69,26.30L39.69,27.60M38.39,27.60L39.69,27.60M38.39,26.30L38.39,27.60M38.39,25.00L38.39,26.30" fill="none" stroke="#B4B4B4" stroke-width="0.1"/><rect x="33" y="30" width="10" height="10" fill="none" stroke="#00A000" stroke-width="0.1"/><path d="M50.31,25.00L51.61,25.00M51.61,25.00L51.61,26.30M51.61,26.30L51.61,27.60M50.31,27.60L51.61,27.60M50.31,26.30L50.31,27.60M50.31,25.00L50.31,26.30M50.31,26.30L51.61,26.30" fill="none" stroke="#B4B4B4" stroke-width="0.1"/><path d="M52.39,25.00L53.69,25.00M52.39,25.00L52.39,26.30M52.39,26.30L53.69,26.30M53.69,26.30L53.69,27.60M52.39,27.60L53.69,27.60" fill="none" stroke="#B4B4B4" stroke-width="0.1"/><rect x="47" y="30" width="10" height="10" fill="none" stroke="#A0A000" stroke-width="0.1"/><path d="M64.31,25.00L65.61,25.00M65.61,25.00L65.61,26.30M65.61,26.30L65.61,27.60M64.31,27.60L65.61,27.60M64.31,25.00L64.31,26.30M64.31,26.30L65.61,26.30" fill="none" stroke="#B4B4B4" stroke-width="0.1"/><path d="M66.39,25.00L67.69,25.00M67.69,25.00L67.69,26.30M67.69,26.30L67.69,27.60M66.39,27.60L67.69,27.60M66.39,26.30L66.39,27.60M66.39,25.00L66.39,26.30" fill="none" stroke="#B4B4B4" stroke-width="0.1"/><rect x="61" y="30" width="10" height="10" fill="none" stroke="#C08000" stroke-width="0.1"/><path d="M78.31,25.00L79.61,25.00M79.61,25.00L79.61,26.30M79.61,26.30L79.61,27.60M78.31,27.60L79.61,27.60M78.31,25.00L78.31,26.30M78.31,26.30L79.61,26.30" fill="none" stroke="#B4B4B4" stroke-width="0.1"/><path d="M80.39,25.00L81.69,25.00M80.39,25.00L80.39,26.30M80.39,26.30L81.69,26.30M81.69,26.30L81.69,27.60M80.39,27.60L81.69,27.60" fill="none" stroke="#B4B4B4" stroke-width="0.1"/><rect x="75" y="30" width="10" height="10" fill="none" stroke="#00A0FF" stroke-width="0.1"/><path d="M92.57,25.00L92.57,26.30M92.57,26.30L92.57,27.60" fill="none" stroke="#B4B4B4" stroke-width="0.1"/><path d="M93.35,25.00L94.65,25.00M94.65,25.00L94.65,26.30M94.65,26.30L94.65,27.60M93.35,27.60L94.65,27.60M93.35,26.30L93.35,27.60M93.35,25.00L93.35,26.30" fill="none" stroke="#B4B4B4" stroke-width="0.1"/><path d="M95.43,25.00L96.73,25.00M96.73,25.00L96.73,26.30M96.73,26.30L96.73,27.60M95.43,27.60L96.73,27.60M95.43,26.30L95.43,27.60M95.43,25.00L95.43,26.30" fill="none" stroke="#B4B4B4" stroke-width="0.1"/><rect x="89" y="30" width="10" height="10" fill="none" stroke="#A000A0" stroke-width="0.1"/></svg>
