<?xml version="1.0" encoding="UTF-8"?>
<svg xmlns="http://www.w3.org/2000/svg" width="75mm" height="64mm" viewBox="0 0 75 64">
<title>Scan offset: rows 1-6 on layers C01-C06, set to 100..600 mm/s</title>
<path d="M5.00,5.00L5.00,7.00M5.00,7.00L5.00,9.00" fill="none" stroke="#000000" stroke-width="0.1"/><rect x="10.00" y="4.00" width="20.00" height="6.00" fill="#0000FF" stroke="#0000FF" stroke-width="0.1"/><rect x="33.00" y="4.00" width="1.00" height="6.00" fill="#0000FF" stroke="#0000FF" stroke-width="0.1"/><rect x="35.00" y="4.00" width="1.00" height="6.00" fill="#0000FF" stroke="#0000FF" stroke-width="0.1"/><rect x="37.00" y="4.00" width="1.00" height="6.00" fill="#0000FF" stroke="#0000FF" stroke-width="0.1"/><rect x="39.00" y="4.00" width="1.00" height="6.00" fill="#0000FF" stroke="#0000FF" stroke-width="0.1"/><rect x="41.00" y="4.00" width="1.00" height="6.00" fill="#0000FF" stroke="#0000FF" stroke-width="0.1"/><rect x="43.00" y="4.00" width="1.00" height="6.00" fill="#0000FF" stroke="#0000FF" stroke-width="0.1"/><rect x="45.00" y="4.00" width="1.00" height="6.00" fill="#0000FF" stroke="#0000FF" stroke-width="0.1"/><rect x="47.00" y="4.00" width="1.00" height="6.00" fill="#0000FF" stroke="#0000FF" stroke-width="0.1"/><rect x="49.00" y="4.00" width="1.00" height="6.00" fill="#0000FF" stroke="#0000FF" stroke-width="0.1"/><rect x="51.00" y="4.00" width="1.00" height="6.00" fill="#0000FF" stroke="#0000FF" stroke-width="0.1"/><rect x="56.00" y="4.00" width="0.20" height="6.00" fill="#0000FF" stroke="#0000FF" stroke-width="0.1"/><rect x="60.00" y="4.00" width="0.30" height="6.00" fill="#0000FF" stroke="#0000FF" stroke-width="0.1"/><rect x="64.00" y="4.00" width="0.50" height="6.00" fill="#0000FF" stroke="#0000FF" stroke-width="0.1"/><rect x="68.00" y="4.00" width="0.80" height="6.00" fill="#0000FF" stroke="#0000FF" stroke-width="0.1"/><path d="M3.00,15.00L5.00,15.00M5.00,15.00L5.00,17.00M3.00,17.00L5.00,17.00M3.00,17.00L3.00,19.00M3.00,19.00L5.00,19.00" fill="none" stroke="#000000" stroke-width="0.1"/><rect x="10.00" y="14.00" width="20.00" height="6.00" fill="#FF0000" stroke="#FF0000" stroke-width="0.1"/><rect x="33.00" y="14.00" width="1.00" height="6.00" fill="#FF0000" stroke="#FF0000" stroke-width="0.1"/><rect x="35.00" y="14.00" width="1.00" height="6.00" fill="#FF0000" stroke="#FF0000" stroke-width="0.1"/><rect x="37.00" y="14.00" width="1.00" height="6.00" fill="#FF0000" stroke="#FF0000" stroke-width="0.1"/><rect x="39.00" y="14.00" width="1.00" height="6.00" fill="#FF0000" stroke="#FF0000" stroke-width="0.1"/><rect x="41.00" y="14.00" width="1.00" height="6.00" fill="#FF0000" stroke="#FF0000" stroke-width="0.1"/><rect x="43.00" y="14.00" width="1.00" height="6.00" fill="#FF0000" stroke="#FF0000" stroke-width="0.1"/><rect x="45.00" y="14.00" width="1.00" height="6.00" fill="#FF0000" stroke="#FF0000" stroke-width="0.1"/><rect x="47.00" y="14.00" width="1.00" height="6.00" fill="#FF0000" stroke="#FF0000" stroke-width="0.1"/><rect x="49.00" y="14.00" width="1.00" height="6.00" fill="#FF0000" stroke="#FF0000" stroke-width="0.1"/><rect x="51.00" y="14.00" width="1.00" height="6.00" fill="#FF0000" stroke="#FF0000" stroke-width="0.1"/><rect x="56.00" y="14.00" width="0.20" height="6.00" fill="#FF0000" stroke="#FF0000" stroke-width="0.1"/><rect x="60.00" y="14.00" width="0.30" height="6.00" fill="#FF0000" stroke="#FF0000" stroke-width="0.1"/><rect x="64.00" y="14.00" width="0.50" height="6.00" fill="#FF0000" stroke="#FF0000" stroke-width="0.1"/><rect x="68.00" y="14.00" width="0.80" height="6.00" fill="#FF0000" stroke="#FF0000" stroke-width="0.1"/><path d="M3.00,25.00L5.00,25.00M5.00,25.00L5.00,27.00M3.00,27.00L5.00,27.00M5.00,27.00L5.00,29.00M3.00,29.00L5.00,29.00" fill="none" stroke="#000000" stroke-width="0.1"/><rect x="10.00" y="24.00" width="20.00" height="6.00" fill="#00E000" stroke="#00E000" stroke-width="0.1"/><rect x="33.00" y="24.00" width="1.00" height="6.00" fill="#00E000" stroke="#00E000" stroke-width="0.1"/><rect x="35.00" y="24.00" width="1.00" height="6.00" fill="#00E000" stroke="#00E000" stroke-width="0.1"/><rect x="37.00" y="24.00" width="1.00" height="6.00" fill="#00E000" stroke="#00E000" stroke-width="0.1"/><rect x="39.00" y="24.00" width="1.00" height="6.00" fill="#00E000" stroke="#00E000" stroke-width="0.1"/><rect x="41.00" y="24.00" width="1.00" height="6.00" fill="#00E000" stroke="#00E000" stroke-width="0.1"/><rect x="43.00" y="24.00" width="1.00" height="6.00" fill="#00E000" stroke="#00E000" stroke-width="0.1"/><rect x="45.00" y="24.00" width="1.00" height="6.00" fill="#00E000" stroke="#00E000" stroke-width="0.1"/><rect x="47.00" y="24.00" width="1.00" height="6.00" fill="#00E000" stroke="#00E000" stroke-width="0.1"/><rect x="49.00" y="24.00" width="1.00" height="6.00" fill="#00E000" stroke="#00E000" stroke-width="0.1"/><rect x="51.00" y="24.00" width="1.00" height="6.00" fill="#00E000" stroke="#00E000" stroke-width="0.1"/><rect x="56.00" y="24.00" width="0.20" height="6.00" fill="#00E000" stroke="#00E000" stroke-width="0.1"/><rect x="60.00" y="24.00" width="0.30" height="6.00" fill="#00E000" stroke="#00E000" stroke-width="0.1"/><rect x="64.00" y="24.00" width="0.50" height="6.00" fill="#00E000" stroke="#00E000" stroke-width="0.1"/><rect x="68.00" y="24.00" width="0.80" height="6.00" fill="#00E000" stroke="#00E000" stroke-width="0.1"/><path d="M3.00,35.00L3.00,37.00M3.00,37.00L5.00,37.00M5.00,35.00L5.00,37.00M5.00,37.00L5.00,39.00" fill="none" stroke="#000000" stroke-width="0.1"/><rect x="10.00" y="34.00" width="20.00" height="6.00" fill="#D0D000" stroke="#D0D000" stroke-width="0.1"/><rect x="33.00" y="34.00" width="1.00" height="6.00" fill="#D0D000" stroke="#D0D000" stroke-width="0.1"/><rect x="35.00" y="34.00" width="1.00" height="6.00" fill="#D0D000" stroke="#D0D000" stroke-width="0.1"/><rect x="37.00" y="34.00" width="1.00" height="6.00" fill="#D0D000" stroke="#D0D000" stroke-width="0.1"/><rect x="39.00" y="34.00" width="1.00" height="6.00" fill="#D0D000" stroke="#D0D000" stroke-width="0.1"/><rect x="41.00" y="34.00" width="1.00" height="6.00" fill="#D0D000" stroke="#D0D000" stroke-width="0.1"/><rect x="43.00" y="34.00" width="1.00" height="6.00" fill="#D0D000" stroke="#D0D000" stroke-width="0.1"/><rect x="45.00" y="34.00" width="1.00" height="6.00" fill="#D0D000" stroke="#D0D000" stroke-width="0.1"/><rect x="47.00" y="34.00" width="1.00" height="6.00" fill="#D0D000" stroke="#D0D000" stroke-width="0.1"/><rect x="49.00" y="34.00" width="1.00" height="6.00" fill="#D0D000" stroke="#D0D000" stroke-width="0.1"/><rect x="51.00" y="34.00" width="1.00" height="6.00" fill="#D0D000" stroke="#D0D000" stroke-width="0.1"/><rect x="56.00" y="34.00" width="0.20" height="6.00" fill="#D0D000" stroke="#D0D000" stroke-width="0.1"/><rect x="60.00" y="34.00" width="0.30" height="6.00" fill="#D0D000" stroke="#D0D000" stroke-width="0.1"/><rect x="64.00" y="34.00" width="0.50" height="6.00" fill="#D0D000" stroke="#D0D000" stroke-width="0.1"/><rect x="68.00" y="34.00" width="0.80" height="6.00" fill="#D0D000" stroke="#D0D000" stroke-width="0.1"/><path d="M3.00,45.00L5.00,45.00M3.00,45.00L3.00,47.00M3.00,47.00L5.00,47.00M5.00,47.00L5.00,49.00M3.00,49.00L5.00,49.00" fill="none" stroke="#000000" stroke-width="0.1"/><rect x="10.00" y="44.00" width="20.00" height="6.00" fill="#FF8000" stroke="#FF8000" stroke-width="0.1"/><rect x="33.00" y="44.00" width="1.00" height="6.00" fill="#FF8000" stroke="#FF8000" stroke-width="0.1"/><rect x="35.00" y="44.00" width="1.00" height="6.00" fill="#FF8000" stroke="#FF8000" stroke-width="0.1"/><rect x="37.00" y="44.00" width="1.00" height="6.00" fill="#FF8000" stroke="#FF8000" stroke-width="0.1"/><rect x="39.00" y="44.00" width="1.00" height="6.00" fill="#FF8000" stroke="#FF8000" stroke-width="0.1"/><rect x="41.00" y="44.00" width="1.00" height="6.00" fill="#FF8000" stroke="#FF8000" stroke-width="0.1"/><rect x="43.00" y="44.00" width="1.00" height="6.00" fill="#FF8000" stroke="#FF8000" stroke-width="0.1"/><rect x="45.00" y="44.00" width="1.00" height="6.00" fill="#FF8000" stroke="#FF8000" stroke-width="0.1"/><rect x="47.00" y="44.00" width="1.00" height="6.00" fill="#FF8000" stroke="#FF8000" stroke-width="0.1"/><rect x="49.00" y="44.00" width="1.00" height="6.00" fill="#FF8000" stroke="#FF8000" stroke-width="0.1"/><rect x="51.00" y="44.00" width="1.00" height="6.00" fill="#FF8000" stroke="#FF8000" stroke-width="0.1"/><rect x="56.00" y="44.00" width="0.20" height="6.00" fill="#FF8000" stroke="#FF8000" stroke-width="0.1"/><rect x="60.00" y="44.00" width="0.30" height="6.00" fill="#FF8000" stroke="#FF8000" stroke-width="0.1"/><rect x="64.00" y="44.00" width="0.50" height="6.00" fill="#FF8000" stroke="#FF8000" stroke-width="0.1"/><rect x="68.00" y="44.00" width="0.80" height="6.00" fill="#FF8000" stroke="#FF8000" stroke-width="0.1"/><path d="M3.00,55.00L5.00,55.00M3.00,55.00L3.00,57.00M3.00,57.00L5.00,57.00M3.00,57.00L3.00,59.00M3.00,59.00L5.00,59.00M5.00,57.00L5.00,59.00" fill="none" stroke="#000000" stroke-width="0.1"/><rect x="10.00" y="54.00" width="20.00" height="6.00" fill="#00E0E0" stroke="#00E0E0" stroke-width="0.1"/><rect x="33.00" y="54.00" width="1.00" height="6.00" fill="#00E0E0" stroke="#00E0E0" stroke-width="0.1"/><rect x="35.00" y="54.00" width="1.00" height="6.00" fill="#00E0E0" stroke="#00E0E0" stroke-width="0.1"/><rect x="37.00" y="54.00" width="1.00" height="6.00" fill="#00E0E0" stroke="#00E0E0" stroke-width="0.1"/><rect x="39.00" y="54.00" width="1.00" height="6.00" fill="#00E0E0" stroke="#00E0E0" stroke-width="0.1"/><rect x="41.00" y="54.00" width="1.00" height="6.00" fill="#00E0E0" stroke="#00E0E0" stroke-width="0.1"/><rect x="43.00" y="54.00" width="1.00" height="6.00" fill="#00E0E0" stroke="#00E0E0" stroke-width="0.1"/><rect x="45.00" y="54.00" width="1.00" height="6.00" fill="#00E0E0" stroke="#00E0E0" stroke-width="0.1"/><rect x="47.00" y="54.00" width="1.00" height="6.00" fill="#00E0E0" stroke="#00E0E0" stroke-width="0.1"/><rect x="49.00" y="54.00" width="1.00" height="6.00" fill="#00E0E0" stroke="#00E0E0" stroke-width="0.1"/><rect x="51.00" y="54.00" width="1.00" height="6.00" fill="#00E0E0" stroke="#00E0E0" stroke-width="0.1"/><rect x="56.00" y="54.00" width="0.20" height="6.00" fill="#00E0E0" stroke="#00E0E0" stroke-width="0.1"/><rect x="60.00" y="54.00" width="0.30" height="6.00" fill="#00E0E0" stroke="#00E0E0" stroke-width="0.1"/><rect x="64.00" y="54.00" width="0.50" height="6.00" fill="#00E0E0" stroke="#00E0E0" stroke-width="0.1"/><rect x="68.00" y="54.00" width="0.80" height="6.00" fill="#00E0E0" stroke="#00E0E0" stroke-width="0.1"/>
</svg>
